<svg aria-hidden="true" style="position: absolute; width: 0; height: 0; overflow: hidden;" version="1.1" xmlns="http://www.w3.org/2000/svg" xmlns:xlink="http://www.w3.org/1999/xlink">
<defs>
<symbol id="icon-phone" width="1em" height="1em" viewBox="0 0 16 16" fill="currentColor">
<title>phone</title>
<path fill-rule="evenodd" d="M11 1H5a1 1 0 0 0-1 1v12a1 1 0 0 0 1 1h6a1 1 0 0 0 1-1V2a1 1 0 0 0-1-1zM5 0a2 2 0 0 0-2 2v12a2 2 0 0 0 2 2h6a2 2 0 0 0 2-2V2a2 2 0 0 0-2-2H5z"/>
<path fill-rule="evenodd" d="M8 14a1 1 0 1 0 0-2 1 1 0 0 0 0 2z"/>
</symbol>
<symbol id="icon-trophy" width="1em" height="1em" viewBox="0 0 16 16" fill="currentColor">
<title>trophy</title>
<path fill-rule="evenodd" d="M2.5.5A.5.5 0 0 1 3 0h10a.5.5 0 0 1 .5.5c0 .538-.012 1.05-.034 1.536a3 3 0 1 1-1.133 5.89c-.79 1.865-1.878 2.777-2.833 3.011v2.173l1.425.356c.194.048.377.135.537.255L13.3 15.1a.5.5 0 0 1-.3.9H3a.5.5 0 0 1-.3-.9l1.838-1.379c.16-.12.343-.207.537-.255L6.5 13.11v-2.173c-.955-.234-2.043-1.146-2.833-3.012a3 3 0 1 1-1.132-5.89A33.076 33.076 0 0 1 2.5.5zm.099 2.54a2 2 0 0 0 .72 3.935c-.333-1.05-.588-2.346-.72-3.935zm10.083 3.935a2 2 0 0 0 .72-3.935c-.133 1.59-.388 2.885-.72 3.935zM3.504 1c.007.517.026 1.006.056 1.469.13 2.028.457 3.546.87 4.667C5.294 9.48 6.484 10 7 10a.5.5 0 0 1 .5.5v2.61a1 1 0 0 1-.757.97l-1.426.356a.5.5 0 0 0-.179.085L4.5 15h7l-.638-.479a.501.501 0 0 0-.18-.085l-1.425-.356a1 1 0 0 1-.757-.97V10.5A.5.5 0 0 1 9 10c.516 0 1.706-.52 2.57-2.864.413-1.12.74-2.64.87-4.667.03-.463.049-.952.056-1.469H3.504z"/>
</symbol>
<symbol id="icon-heart" width="1em" height="1em" viewBox="0 0 16 16" fill="currentColor">
<title>heart</title>
<path fill-rule="evenodd" d="M8 2.748l-.717-.737C5.6.281 2.514.878 1.4 3.053c-.523 1.023-.641 2.5.314 4.385.92 1.815 2.834 3.989 6.286 6.357 3.452-2.368 5.365-4.542 6.286-6.357.955-1.886.838-3.362.314-4.385C13.486.878 10.4.28 8.717 2.01L8 2.748zM8 15C-7.333 4.868 3.279-3.04 7.824 1.143c.06.055.119.112.176.171a3.12 3.12 0 0 1 .176-.17C12.72-3.042 23.333 4.867 8 15z"/>
</symbol>
<symbol id="icon-star" width="1em" height="1em" viewBox="0 0 16 16" fill="currentColor">
<title>star</title>
<path fill-rule="evenodd" d="M2.866 14.85c-.078.444.36.791.746.593l4.39-2.256 4.389 2.256c.386.198.824-.149.746-.592l-.83-4.73 3.523-3.356c.329-.314.158-.888-.283-.95l-4.898-.696L8.465.792a.513.513 0 0 0-.927 0L5.354 5.12l-4.898.696c-.441.062-.612.636-.283.95l3.523 3.356-.83 4.73zm4.905-2.767l-3.686 1.894.694-3.957a.565.565 0 0 0-.163-.505L1.71 6.745l4.052-.576a.525.525 0 0 0 .393-.288l1.847-3.658 1.846 3.658a.525.525 0 0 0 .393.288l4.052.575-2.906 2.77a.564.564 0 0 0-.163.506l.694 3.957-3.686-1.894a.503.503 0 0 0-.461 0z"/>
</symbol>
<symbol id="icon-camera-video" width="1em" height="1em" viewBox="0 0 16 16" fill="currentColor">
<title>video-camera</title>
  <path fill-rule="evenodd" d="M0 5a2 2 0 0 1 2-2h7.5a2 2 0 0 1 1.983 1.738l3.11-1.382A1 1 0 0 1 16 4.269v7.462a1 1 0 0 1-1.406.913l-3.111-1.382A2 2 0 0 1 9.5 13H2a2 2 0 0 1-2-2V5zm11.5 5.175l3.5 1.556V4.269l-3.5 1.556v4.35zM2 4a1 1 0 0 0-1 1v6a1 1 0 0 0 1 1h7.5a1 1 0 0 0 1-1V5a1 1 0 0 0-1-1H2z"/>
</symbol>
<symbol id="icon-nodes" width="1em" height="1em" viewBox="0 0 16 16" fill="currentColor">
<title>nodes</title>
  <path fill-rule="evenodd" d="M6 3.5A1.5 1.5 0 0 1 7.5 2h1A1.5 1.5 0 0 1 10 3.5v1A1.5 1.5 0 0 1 8.5 6v1H14a.5.5 0 0 1 .5.5v1a.5.5 0 0 1-1 0V8h-5v.5a.5.5 0 0 1-1 0V8h-5v.5a.5.5 0 0 1-1 0v-1A.5.5 0 0 1 2 7h5.5V6A1.5 1.5 0 0 1 6 4.5v-1zM8.5 5a.5.5 0 0 0 .5-.5v-1a.5.5 0 0 0-.5-.5h-1a.5.5 0 0 0-.5.5v1a.5.5 0 0 0 .5.5h1zM0 11.5A1.5 1.5 0 0 1 1.5 10h1A1.5 1.5 0 0 1 4 11.5v1A1.5 1.5 0 0 1 2.5 14h-1A1.5 1.5 0 0 1 0 12.5v-1zm1.5-.5a.5.5 0 0 0-.5.5v1a.5.5 0 0 0 .5.5h1a.5.5 0 0 0 .5-.5v-1a.5.5 0 0 0-.5-.5h-1zm4.5.5A1.5 1.5 0 0 1 7.5 10h1a1.5 1.5 0 0 1 1.5 1.5v1A1.5 1.5 0 0 1 8.5 14h-1A1.5 1.5 0 0 1 6 12.5v-1zm1.5-.5a.5.5 0 0 0-.5.5v1a.5.5 0 0 0 .5.5h1a.5.5 0 0 0 .5-.5v-1a.5.5 0 0 0-.5-.5h-1zm4.5.5a1.5 1.5 0 0 1 1.5-1.5h1a1.5 1.5 0 0 1 1.5 1.5v1a1.5 1.5 0 0 1-1.5 1.5h-1a1.5 1.5 0 0 1-1.5-1.5v-1zm1.5-.5a.5.5 0 0 0-.5.5v1a.5.5 0 0 0 .5.5h1a.5.5 0 0 0 .5-.5v-1a.5.5 0 0 0-.5-.5h-1z"/>
</symbol>
<symbol id="icon-lock" width="1em" height="1em" viewBox="0 0 16 16" fill="currentColor">
<title>lock</title>
  <path fill-rule="evenodd" d="M11.5 8h-7a1 1 0 0 0-1 1v5a1 1 0 0 0 1 1h7a1 1 0 0 0 1-1V9a1 1 0 0 0-1-1zm-7-1a2 2 0 0 0-2 2v5a2 2 0 0 0 2 2h7a2 2 0 0 0 2-2V9a2 2 0 0 0-2-2h-7zm0-3a3.5 3.5 0 1 1 7 0v3h-1V4a2.5 2.5 0 0 0-5 0v3h-1V4z"/>
</symbol>
<symbol id="icon-house" width="1em" height="1em" viewBox="0 0 16 16" fill="currentColor">
<title>house</title>
<path fill-rule="evenodd" d="M7.646 1.146a.5.5 0 0 1 .708 0l6 6a.5.5 0 0 1 .146.354v7a.5.5 0 0 1-.5.5H9.5a.5.5 0 0 1-.5-.5v-4H7v4a.5.5 0 0 1-.5.5H2a.5.5 0 0 1-.5-.5v-7a.5.5 0 0 1 .146-.354l6-6zM2.5 7.707V14H6v-4a.5.5 0 0 1 .5-.5h3a.5.5 0 0 1 .5.5v4h3.5V7.707L8 2.207l-5.5 5.5z"/>
  <path fill-rule="evenodd" d="M13 2.5V6l-2-2V2.5a.5.5 0 0 1 .5-.5h1a.5.5 0 0 1 .5.5z"/>
  </symbol>
<symbol id="icon-hammer" width="1em" height="1em" viewBox="0 0 16 16" fill="currentColor">
<title>hammer</title>
 <path d="M9.812 1.952a.5.5 0 0 1-.312.89c-1.671 0-2.852.596-3.616 1.185L4.857 5.073V6.21a.5.5 0 0 1-.146.354L3.425 7.853a.5.5 0 0 1-.708 0L.146 5.274a.5.5 0 0 1 0-.706l1.286-1.29a.5.5 0 0 1 .354-.146H2.84C4.505 1.228 6.216.862 7.557 1.04a5.009 5.009 0 0 1 2.077.782l.178.129z"/>
  <path fill-rule="evenodd" d="M6.012 3.5a.5.5 0 0 1 .359.165l9.146 8.646A.5.5 0 0 1 15.5 13L14 14.5a.5.5 0 0 1-.756-.056L4.598 5.297a.5.5 0 0 1 .048-.65l1-1a.5.5 0 0 1 .366-.147z"/>
  </symbol>
<symbol id="icon-search" width="1em" height="1em" viewBox="0 0 16 16" fill="currentColor">
<title>search</title>
  <path fill-rule="evenodd" d="M10.442 10.442a1 1 0 0 1 1.415 0l3.85 3.85a1 1 0 0 1-1.414 1.415l-3.85-3.85a1 1 0 0 1 0-1.415z"/>
  <path fill-rule="evenodd" d="M6.5 12a5.5 5.5 0 1 0 0-11 5.5 5.5 0 0 0 0 11zM13 6.5a6.5 6.5 0 1 1-13 0 6.5 6.5 0 0 1 13 0z"/></symbol>
</symbol>
</defs>
</svg>
